#!OML:ASF H:\ManfredETheater\Project 1\Capture day 1\Session 1\subject.ASF
:FULLY-SPECIFIED
:DEGREES
97
root 2.9149 16.8444 -19.5615 -159.268 -9.76186 -189.26
lowerback 13.0956 -2.20482 -9.33514
upperback -2.77756 -4.64788 -0.469097
thorax -9.72245 -1.73032 5.71909
lowerneck -24.265 -4.28552 -4.3215
upperneck 5.93922 -5.52265 5.93809
head 5.91827 -2.4636 1.94243
rclavicle -5.9536e-014 -5.24792e-014
rhumerus -68.7292 0.886904 -83.9926
rradius 70.3086
rwrist -14.5744
rhand -27.9473 13.1683
rfingers 7.12502
rthumb -1.33505 -16.8073
lclavicle -5.9536e-014 -5.24792e-014
lhumerus -26.9295 -16.6418 99.7037
lradius 121.609
lwrist 23.1013
lhand -20.6405 -9.97636
lfingers 7.12502
lthumb 5.72149 19.9264
rfemur -61.3785 -15.1961 16.4591
rtibia 92.2191
rfoot -5.4755 -2.82908
rtoes -25.9878
lfemur -14.0616 -5.71498 -29.5912
ltibia 44.9631
lfoot -21.6452 -5.23743
ltoes -17.262
98
root 2.9154 16.9553 -20.2872 -159.313 -9.56291 -189.305
lowerback 12.6055 -2.43966 -9.56559
upperback -2.98353 -4.93634 -0.283741
thorax -9.58591 -1.85106 6.07368
lowerneck -24.3193 -4.01785 -4.24793
upperneck 6.21771 -5.15706 5.73613
head 5.98962 -2.28974 1.90916
rclavicle -3.54831e-014 -2.16675e-014
rhumerus -70.9467 1.334 -83.652
rradius 71.4044
rwrist -14.7279
rhand -27.697 13.2101
rfingers 7.12502
rthumb -1.09322 -16.7668
lclavicle -3.54831e-014 -2.16675e-014
lhumerus -26.1601 -17.3698 98.9861
lradius 124.917
lwrist 23.284
lhand -20.5584 -9.83417
lfingers 7.12502
lthumb 5.80075 20.0664
rfemur -62.3285 -14.4065 16.5737
rtibia 87.717
rfoot -6.22811 -3.565
rtoes -26.5486
lfemur -10.8399 -5.79838 -29.2387
ltibia 42.4244
lfoot -15.503 -6.45782
ltoes -19.3674
99
root 2.91689 17.0671 -21.0186 -159.451 -9.2994 -189.319
lowerback 12.1305 -2.63775 -9.75935
upperback -3.16373 -5.17183 -0.117076
thorax -9.43903 -1.95172 6.37403
lowerneck -24.32 -3.76254 -4.20262
upperneck 6.49524 -4.79711 5.53215
head 6.05465 -2.11988 1.87977
rclavicle 8.31417e-014 2.68359e-014
rhumerus -73.0768 1.65219 -83.2539
rradius 72.4585
rwrist -15.0965
rhand -27.5034 13.267
rfingers 7.12502
rthumb -0.906241 -16.7109
lclavicle 8.31417e-014 2.68359e-014
lhumerus -25.5444 -18.0745 98.1481
lradius 127.997
lwrist 22.7517
lhand -20.5408 -9.82164
lfingers 7.12502
lthumb 5.81769 20.0785
rfemur -62.8252 -13.5624 16.6041
rtibia 82.8425
rfoot -6.92999 -4.22766
rtoes -27.0436
lfemur -7.63738 -5.84771 -28.8862
ltibia 39.8621
lfoot -7.77699 -7.42309
ltoes -19.2305
100
root 2.91875 17.1754 -21.7539 -159.677 -8.97707 -189.305
lowerback 11.6634 -2.8011 -9.90703
upperback -3.31097 -5.35456 0.0267156
thorax -9.27226 -2.03375 6.61069
lowerneck -24.2968 -3.5249 -4.20166
upperneck 6.8026 -4.44767 5.34945
head 6.12891 -1.95389 1.86333
rclavicle 3.14577e-014 -1.19271e-015
rhumerus -75.0947 1.85183 -82.7977
rradius 73.4423
rwrist -15.5449
rhand -27.368 13.3667
rfingers 7.12502
rthumb -0.775529 -16.6116
lclavicle 3.14577e-014 -1.19271e-015
lhumerus -25.0822 -18.7087 97.2154
lradius 130.858
lwrist 21.8136
lhand -20.5388 -9.9501
lfingers 7.12502
lthumb 5.81964 19.95
rfemur -62.9193 -12.6871 16.5662
rtibia 77.673
rfoot -7.59005 -4.79539
rtoes -27.5619
lfemur -4.45652 -5.93045 -28.5644
ltibia 37.3511
lfoot 0.8426 -7.66195
ltoes -17.7826
101
root 2.92033 17.2773 -22.4907 -159.994 -8.61523 -189.257
lowerback 11.2227 -2.93417 -9.98732
upperback -3.42515 -5.48928 0.14733
thorax -9.0987 -2.09939 6.775
lowerneck -24.2768 -3.66644 -4.07608
upperneck 7.19389 -4.03267 5.14059
head 6.2299 -1.48263 1.85575
rclavicle 4.5472e-014 9.54166e-015
rhumerus -76.9879 1.95641 -82.2956
rradius 74.3536
rwrist -15.9517
rhand -27.288 13.5031
rfingers 7.12502
rthumb -0.698251 -16.4755
lclavicle 4.5472e-014 9.54166e-015
lhumerus -24.7743 -19.2499 96.2184
lradius 133.51
lwrist 20.7576
lhand -20.5504 -10.1915
lfingers 7.12502
lthumb 5.80841 19.7089
rfemur -62.6564 -11.8051 16.4846
rtibia 72.279
rfoot -8.2021 -5.25806
rtoes -28.1513
lfemur -1.30944 -6.11411 -28.3023
ltibia 35.0053
lfoot 9.79665 -7.25468
ltoes -14.1191
102
root 2.92082 17.3677 -23.2253 -160.367 -8.23613 -189.187
lowerback 10.8053 -3.04716 -9.99531
upperback -3.50677 -5.5888 0.246377
thorax -8.91597 -2.15485 6.86875
lowerneck -24.2794 -3.43502 -4.1569
upperneck 7.59248 -3.7221 4.9884
head 6.34352 -1.36006 1.85542
rclavicle -2.40032e-014 -6.55989e-015
rhumerus -78.7234 2.00102 -81.7705
rradius 75.2108
rwrist -16.2595
rhand -27.2553 13.6916
rfingers 7.12502
rthumb -0.666641 -16.2871
lclavicle -2.40032e-014 -6.55989e-015
lhumerus -24.5832 -19.6666 95.1718
lradius 135.936
lwrist 19.8412
lhand -20.5487 -10.508
lfingers 7.12502
lthumb 5.8101 19.3923
rfemur -62.1384 -10.9502 16.3735
rtibia 66.7407
rfoot -8.73607 -5.61412
rtoes -28.8204
lfemur 1.73762 -6.45765 -28.1434
ltibia 32.9823
lfoot 17.8955 -6.44268
ltoes -9.3395
103
root 2.91982 17.4459 -23.9553 -160.772 -7.87143 -189.119
lowerback 10.4314 -3.15106 -9.9447
upperback -3.56017 -5.67296 0.324966
thorax -8.73666 -2.20755 6.90647
lowerneck -24.3283 -3.22091 -4.25301
upperneck 8.01968 -3.42722 4.84591
head 6.47524 -1.24394 1.85902
rclavicle 4.57702e-014 1.15295e-014
rhumerus -80.2777 2.01436 -81.2498
rradius 76.037
rwrist -16.4499
rhand -27.2569 13.9163
rfingers 7.12502
rthumb -0.668176 -16.0624
lclavicle 4.57702e-014 1.15295e-014
lhumerus -24.4835 -19.9402 94.0879
lradius 138.107
lwrist 19.2118
lhand -20.5094 -10.8393
lfingers 7.12502
lthumb 5.84798 19.06
rfemur -61.416 -10.1581 16.2302
rtibia 61.1228
rfoot -9.17661 -5.89014
rtoes -29.5866
lfemur 4.60708 -6.97335 -28.126
ltibia 31.4682
lfoot 24.4036 -5.70151
ltoes -4.20052
104
root 2.91719 17.5135 -24.6795 -161.179 -7.5304 -189.068
lowerback 10.1068 -3.24555 -9.85031
upperback -3.59717 -5.74552 0.3835
thorax -8.57575 -2.2569 6.89913
lowerneck -24.4143 -3.02758 -4.35797
upperneck 8.44395 -3.15198 4.71187
head 6.61342 -1.13587 1.86487
rclavicle 3.88624e-014 4.17448e-015
rhumerus -81.6485 2.01229 -80.7618
rradius 76.86
rwrist -16.5454
rhand -27.2835 14.1892
rfingers 7.12502
rthumb -0.693927 -15.7895
lclavicle 3.88624e-014 4.17448e-015
lhumerus -24.4682 -20.0689 92.995
lradius 139.973
lwrist 18.9411
lhand -20.4396 -11.1264
lfingers 7.12502
lthumb 5.91542 18.7711
rfemur -60.5377 -9.42856 16.0468
rtibia 55.4961
rfoot -9.51366 -6.14216
rtoes -30.4322
lfemur 7.18752 -7.59726 -28.2604
ltibia 30.6654
lfoot 29 -5.37268
ltoes 0.607924
